<?xml version="1.0" encoding="UTF-8" standalone="no"?>
<svg
   xmlns:dc="http://purl.org/dc/elements/1.1/"
   xmlns:cc="http://creativecommons.org/ns#"
   xmlns:rdf="http://www.w3.org/1999/02/22-rdf-syntax-ns#"
   xmlns:svg="http://www.w3.org/2000/svg"
   xmlns="http://www.w3.org/2000/svg"
   id="svg8"
   version="1.1"
   viewBox="0 0 135.46666 16.933334"
   height="64"
   width="512">
  <defs
     id="defs2" />
  <metadata
     id="metadata5">
    <rdf:RDF>
      <cc:Work
         rdf:about="">
        <dc:format>image/svg+xml</dc:format>
        <dc:type
           rdf:resource="http://purl.org/dc/dcmitype/StillImage" />
        <dc:title></dc:title>
      </cc:Work>
    </rdf:RDF>
  </metadata>
  <g
     transform="translate(0,-280.06664)"
     id="layer1">
    <path
       id="path1400"
       d="m 87.699361,293.38707 0.143044,1.63648 0.72202,0.81737 0.258838,-0.24522 -0.449561,-0.6539 0.340576,-1.12163 0.336036,-0.0863 4.768072,-4.33667 2.474846,1.42135 -0.463182,0.74926 v 2.6565 l -0.07724,0.80376 2.597462,0.0545 -0.05901,-0.41778 -1.839118,-0.49951 0.918477,-4.04724 -2.633002,-1.60549 -0.01284,-0.82201 0.873389,-1.64402 0.590819,0.29541 2.69723,0.26972 0.205499,-0.75779 -0.860537,0.38531 -1.96513,-0.44954 -0.359623,-2.13208 0.192655,-0.48807 0.642194,0.46239 0.590828,-1.86238 -0.793669,-0.55065 -0.985398,0.1771 -0.0091,1.45313 -0.20434,0.51312 -0.558557,-0.19979 -0.517673,0.48135 -1.026265,0.0954 -1.385015,3.45117 0.785593,0.0908 0.131691,-0.60849 0.885501,-2.0707 0.322404,-0.17257 -0.540378,2.97437 -0.644819,0.96268 -2.760936,2.79727 -1.534866,2.20694 z"
       style="fill:#ffffff;stroke:none;stroke-width:0.035963px;stroke-linecap:butt;stroke-linejoin:miter;stroke-opacity:1;fill-opacity:1" />
    <path
       id="path1027"
       d="m 3.083127,291.33453 1.9478648,-1.1246 0.3300387,0.4607 2.8960308,0.50366 0.183144,-2.56407 0.4922127,-1.37361 0.4693157,-2.79301 -0.8699534,-0.27473 -1.6025417,1.75135 -0.5723394,0.84707 -0.4120864,-0.95008 0.7440402,-0.29762 1.5682083,-1.84293 1.5338621,-0.1717 0.2174896,-0.3434 0.835609,0.0343 0.183149,-0.45787 0.03437,-1.49953 0.995869,-0.18314 0.789829,0.61812 -0.560891,1.83147 -0.663915,-0.46931 v 0.65247 l 0.38919,1.60254 1.510972,-0.76693 0.297616,-0.54945 0.56089,0.64102 -2.667093,1.48809 -0.457868,-0.44644 -1.018759,1.93451 0.01143,1.16756 1.3965,3.05629 0.526553,3.22798 1.648334,-0.54943 0.263276,0.49219 -2.174887,1.01877 -0.183144,-0.77838 -1.201907,-2.38092 0.103016,-0.85852 -1.0187583,-1.51096 -0.5151037,1.92306 -3.8918992,-1.06457 -0.2861667,-0.3205 -1.4766275,0.76693 z"
       style="fill:#ffffff;stroke:none;stroke-width:0.035963;stroke-linecap:butt;stroke-linejoin:miter;stroke-miterlimit:4;stroke-dasharray:none;stroke-opacity:1;fill-opacity:1" />
    <path
       id="path1029"
       d="m 20.508852,291.07695 1.939437,-1.19449 0.462374,0.71925 2.299066,0.33395 -0.141284,-2.55594 0.539443,-0.89908 0.385319,-2.51741 -0.565128,0.0385 -1.965121,2.82567 -0.385319,-0.8477 0.706416,-0.19266 1.374297,-2.29906 1.117428,-0.50092 0.410999,-0.66789 0.577979,0.0771 0.205505,-0.50092 0.06422,-1.4642 0.937602,-0.17983 0.80917,0.59083 -0.565134,1.81099 -0.655041,-0.44953 0.0257,0.73211 0.359628,1.61832 1.412833,-0.21834 0.539443,-0.66789 0.42385,0.73211 -2.877043,0.98898 -0.154124,-0.25687 -0.166968,0.21834 -0.706417,1.38715 -0.08991,0.92476 1.977961,2.55594 -0.950453,3.75043 1.644025,0.4367 0.05138,0.41099 -2.504564,-0.0128 0.205505,-0.8477 -0.141283,-2.40182 0.706411,-1.09173 -1.168798,-1.06604 -0.128438,2.27337 -3.853176,-1.39998 -0.359629,-0.5266 -1.46421,0.79631 z"
       style="fill:#ffffff;stroke:none;stroke-width:0.035963px;stroke-linecap:butt;stroke-linejoin:miter;stroke-opacity:1;fill-opacity:1" />
    <path
       id="path1031"
       d="m 40.203408,290.39557 -1.961717,1.18974 0.326954,0.47227 1.507615,-0.78105 0.336035,0.48135 2.779102,0.79922 -0.826466,3.02431 2.479393,-0.0181 -0.01816,-0.43594 -1.652929,-0.46319 2.14336,-3.16054 -1.761914,-2.55205 0.181643,-1.40772 0.690234,-0.9082 2.533885,0.80831 -0.136231,-0.88097 -0.817384,0.2543 -1.17158,-0.7538 0.472266,-1.80733 -0.43594,-0.35419 0.181642,-0.45411 0.681154,0.47227 0.535839,-1.83457 -0.790137,-0.59942 -0.989943,0.18164 0.02724,1.44405 -0.227048,0.51767 -0.781055,-0.0273 -0.635743,1.07168 -0.408691,2.48847 -0.699315,1.55303 0.899122,2.36132 -1.979885,0.0363 z"
       style="fill:#ffffff;stroke:none;stroke-width:0.035963px;stroke-linecap:butt;stroke-linejoin:miter;stroke-opacity:1;fill-opacity:1" />
    <path
       id="path1033"
       d="m 58.446306,288.53377 0.472267,0.80831 0.363283,2.09794 -0.308789,0.24521 -0.862796,-0.0363 -0.01816,0.71747 -2.161523,1.68018 1.307813,1.27149 1.235155,-0.0182 v -0.42686 h -0.890041 l -0.454101,-0.98085 1.026269,-0.39053 0.245218,0.59941 0.381446,-0.13622 -0.118068,-0.69933 2.061619,-0.76288 -0.0091,-0.72657 1.607519,-0.65391 0.672071,-0.54492 -2.642871,-1.78007 0.308791,-1.20792 0.799216,0.99903 0.245214,0.8083 0.608497,-0.009 -1.12617,-2.78819 0.871872,-1.75282 -0.272459,-0.70841 0.118066,-0.49042 0.653905,0.53584 0.581253,-1.59843 -0.69932,-0.83555 -0.826461,0.10898 -0.272464,0.43594 0.02725,1.0081 -0.254294,0.43594 -0.390529,-0.16347 -0.762891,0.74472 -0.71748,3.09697 z"
       style="fill:#ffffff;stroke:none;stroke-width:0.035963px;stroke-linecap:butt;stroke-linejoin:miter;stroke-opacity:1;fill-opacity:1" />
    <path
       id="path1035"
       d="m 71.386275,294.19459 0.905497,1.56696 h 1.001829 l 0.147704,-0.3532 -0.699995,-0.0771 -0.06422,-1.04035 0.244033,-0.006 2.388972,-2.28621 1.862369,-2.61375 1.9009,0.87339 -0.905494,1.34861 -0.391741,1.29723 -0.5844,0.60367 2.087138,1.20732 0.250458,-0.43668 -1.380722,-1.03394 2.626584,-3.35226 -2.870621,-1.63119 0.192661,-0.91191 0.507334,-1.04679 2.003654,1.16881 0.494491,0.75779 0.443114,-0.43669 -0.744948,-0.68074 -1.810993,-1.21374 0.571557,-1.36788 -0.378899,-0.85413 0.173396,-0.44954 0.725678,0.50092 0.558714,-1.84952 -0.777059,-0.57156 -1.001824,0.17339 -0.0065,1.45779 -0.398161,0.39174 -0.661463,-0.0385 -0.404583,0.57799 -0.937607,0.39815 v 3.17888 l -1.618335,3.97519 -0.97614,0.34679 -1.444939,2.03576 z"
       style="fill:#ffffff;stroke:none;stroke-width:0.035963px;stroke-linecap:butt;stroke-linejoin:miter;stroke-opacity:1;fill-opacity:1" />
    <path
       id="path1402"
       d="m 105.19883,292.68942 -0.22705,1.74375 -0.57216,-0.0273 0.14531,-2.31592 0.63574,0.0363 3.42392,-0.9627 1.23516,-2.50665 0.98086,-4.13232 -0.74473,0.10899 -1.09892,1.69833 -0.34512,0.87189 -0.74472,-0.56309 0.62665,-0.72656 1.39864,-2.35226 1.32597,0.009 0.21797,-0.37236 0.64482,0.16347 0.2543,-0.49043 0.0545,-1.47129 0.94454,-0.15439 0.79922,0.57217 -0.59034,1.85273 -0.64481,-0.46318 -0.0999,0.61758 0.56308,2.03437 2.14337,-0.50859 0.25429,-0.55401 0.29972,0.73565 -2.71554,0.77197 -0.67207,-0.38145 -0.56308,0.7629 -0.48135,1.24423 0.0908,0.78106 2.14336,2.4249 0.51767,3.72363 1.63478,-0.54492 0.22704,0.4541 -2.16152,1.04443 -0.16348,-0.79013 -1.07168,-1.94355 0.13623,-1.63477 -2.17061,-1.8164 -1.35322,2.67919 z"
       style="fill:#ffffff;stroke:none;stroke-width:0.035963px;stroke-linecap:butt;stroke-linejoin:miter;stroke-opacity:1;fill-opacity:1" />
    <path
       id="path1404"
       d="m 122.59747,290.81602 -1.32292,1.83667 0.40459,0.30185 1.16237,-1.24588 0.3211,0.16699 4.25134,0.32751 0.52018,-2.22842 1.61834,1.70182 -0.10918,1.20733 1.48348,2.39539 0.17339,0.77706 2.15778,-1.04679 -0.25045,-0.47521 -1.61192,0.55871 -1.02751,-3.57061 -1.43981,-2.90915 -0.18496,-0.93119 0.50093,-1.29724 0.55228,-0.80275 0.51376,0.55229 2.57521,-1.48989 -0.3211,-0.75137 -0.31468,0.77705 -1.76604,0.7578 -0.46879,-1.77889 -0.0129,-0.66788 0.61651,0.39174 0.61138,-1.79173 -0.79119,-0.57798 -0.98256,0.17982 -0.0257,1.44494 -0.27614,0.48165 -0.61652,-0.0385 -0.17339,0.23762 -1.39356,-0.0192 -1.52201,2.12567 -0.81559,0.57798 0.5266,0.69999 0.81559,-0.68072 1.18806,-2.02935 0.72569,0.27614 -0.75138,3.43576 -0.94402,3.44217 -3.0697,0.0385 z"
       style="fill:#ffffff;fill-opacity:1;stroke:none;stroke-width:0.035963px;stroke-linecap:butt;stroke-linejoin:miter;stroke-opacity:1" />
  </g>
</svg>
